<svg xmlns="http://www.w3.org/2000/svg" width="1280" height="720" viewBox="0 0 1280 720" fill="none">
  <defs>
    <linearGradient id="bg2" x1="0" y1="0" x2="1280" y2="720" gradientUnits="userSpaceOnUse">
      <stop stop-color="#1A1028"/>
      <stop offset="1" stop-color="#30164A"/>
    </linearGradient>
  </defs>
  <rect width="1280" height="720" fill="url(#bg2)"/>
  <rect x="38" y="38" width="1204" height="644" rx="18" fill="#2A1741" stroke="#5A3882"/>
  <text x="72" y="92" fill="#FFCC66" font-family="Segoe UI, Arial" font-size="34" font-weight="700">Power BI Sample</text>
  <text x="72" y="130" fill="#E0C8F6" font-family="Segoe UI, Arial" font-size="24">Operations Health Monitor</text>
  <rect x="72" y="170" width="346" height="216" rx="12" fill="#3A225A"/>
  <rect x="438" y="170" width="346" height="216" rx="12" fill="#3A225A"/>
  <rect x="804" y="170" width="306" height="216" rx="12" fill="#3A225A"/>
  <rect x="72" y="410" width="1038" height="220" rx="12" fill="#241236"/>
  <line x1="120" y1="580" x2="1020" y2="580" stroke="#7D5DA6" stroke-width="3"/>
  <rect x="140" y="520" width="68" height="60" rx="6" fill="#FFCC66"/>
  <rect x="240" y="486" width="68" height="94" rx="6" fill="#FFCC66"/>
  <rect x="340" y="452" width="68" height="128" rx="6" fill="#FFCC66"/>
  <rect x="440" y="470" width="68" height="110" rx="6" fill="#FFCC66"/>
  <rect x="540" y="430" width="68" height="150" rx="6" fill="#FFCC66"/>
  <rect x="640" y="500" width="68" height="80" rx="6" fill="#FFCC66"/>
  <text x="856" y="324" fill="#D7B9F6" font-family="Segoe UI, Arial" font-size="22">SLA</text>
  <text x="856" y="352" fill="#FFFFFF" font-family="Segoe UI, Arial" font-size="42" font-weight="700">96.4%</text>
</svg>
